<svg viewBox="0 0 800 600" xmlns="http://www.w3.org/2000/svg">
  <!-- Background -->
  <rect x="0" y="0" width="800" height="600" fill="#f8f9fa" />
  
  <!-- Main Title -->
  <text x="400" y="40" text-anchor="middle" font-family="Arial" font-size="24" font-weight="bold" fill="#0066cc">
    SAP Integration Landscape Overview
  </text>
  
  <!-- Central Concept: SAP Integration Suite -->
  <rect x="300" y="250" width="200" height="100" rx="10" fill="#0066cc" />
  <text x="400" y="290" text-anchor="middle" font-family="Arial" font-size="16" font-weight="bold" fill="white">
    SAP Integration Suite
  </text>
  <text x="400" y="310" text-anchor="middle" font-family="Arial" font-size="12" fill="white">
    on SAP Business Technology
  </text>
  <text x="400" y="330" text-anchor="middle" font-family="Arial" font-size="12" fill="white">
    Platform (BTP)
  </text>
  
  <!-- Supporting Elements with Connecting Paths -->
  <!-- ISA-M -->
  <rect x="50" y="100" width="160" height="80" rx="10" fill="#5c9fd1" />
  <text x="130" y="140" text-anchor="middle" font-family="Arial" font-size="14" font-weight="bold" fill="white">
    Integration Solution
  </text>
  <text x="130" y="160" text-anchor="middle" font-family="Arial" font-size="14" font-weight="bold" fill="white">
    Advisory Methodology
  </text>
  <path d="M180 180 L300 250" stroke="#5c9fd1" stroke-width="2" fill="none" />
  
  <!-- Integration Strategy Principles -->
  <rect x="590" y="100" width="160" height="80" rx="10" fill="#5c9fd1" />
  <text x="670" y="130" text-anchor="middle" font-family="Arial" font-size="14" font-weight="bold" fill="white">
    Integration Principles
  </text>
  <text x="670" y="150" text-anchor="middle" font-family="Arial" font-size="10" fill="white">
    • Out-of-the-box integration
  </text>
  <text x="670" y="165" text-anchor="middle" font-family="Arial" font-size="10" fill="white">
    • Open integration
  </text>
  <text x="670" y="180" text-anchor="middle" font-family="Arial" font-size="10" fill="white">
    • Holistic integration • AI-driven
  </text>
  <path d="M590 140 L500 250" stroke="#5c9fd1" stroke-width="2" fill="none" />
  
  <!-- Prepackaged content -->
  <rect x="50" y="400" width="160" height="80" rx="10" fill="#5c9fd1" />
  <text x="130" y="430" text-anchor="middle" font-family="Arial" font-size="14" font-weight="bold" fill="white">
    Prepackaged Content
  </text>
  <text x="130" y="450" text-anchor="middle" font-family="Arial" font-size="12" fill="white">
    • Signavio Process Navigator
  </text>
  <text x="130" y="470" text-anchor="middle" font-family="Arial" font-size="12" fill="white">
    • SAP Help Portal
  </text>
  <path d="M210 420 L300 320" stroke="#5c9fd1" stroke-width="2" fill="none" />
  
  <!-- Business Accelerator Hub -->
  <rect x="590" y="400" width="160" height="80" rx="10" fill="#5c9fd1" />
  <text x="670" y="430" text-anchor="middle" font-family="Arial" font-size="14" font-weight="bold" fill="white">
    SAP Business
  </text>
  <text x="670" y="450" text-anchor="middle" font-family="Arial" font-size="14" font-weight="bold" fill="white">
    Accelerator Hub
  </text>
  <text x="670" y="470" text-anchor="middle" font-family="Arial" font-size="12" fill="white">
    APIs, Integration Content
  </text>
  <path d="M590 440 L500 320" stroke="#5c9fd1" stroke-width="2" fill="none" />
  
  <!-- Cloud ALM -->
  <rect x="320" y="480" width="160" height="80" rx="10" fill="#5c9fd1" />
  <text x="400" y="510" text-anchor="middle" font-family="Arial" font-size="14" font-weight="bold" fill="white">
    SAP Cloud ALM
  </text>
  <text x="400" y="530" text-anchor="middle" font-family="Arial" font-size="12" fill="white">
    Monitoring & Operations
  </text>
  <text x="400" y="550" text-anchor="middle" font-family="Arial" font-size="12" fill="white">
    Requirements & Documentation
  </text>
  <path d="M400 480 L400 350" stroke="#5c9fd1" stroke-width="2" fill="none" />

  <!-- Core Integration Suite Components -->
  <rect x="40" y="250" width="120" height="40" rx="5" fill="#89b6d5" />
  <text x="100" y="275" text-anchor="middle" font-family="Arial" font-size="12" font-weight="bold" fill="white">
    Integration Assessment
  </text>
  <path d="M160 270 L300 280" stroke="#89b6d5" stroke-width="2" fill="none" />
  
  <rect x="40" y="300" width="120" height="40" rx="5" fill="#89b6d5" />
  <text x="100" y="325" text-anchor="middle" font-family="Arial" font-size="12" font-weight="bold" fill="white">
    Cloud Integration
  </text>
  <path d="M160 320 L300 290" stroke="#89b6d5" stroke-width="2" fill="none" />
  
  <rect x="640" y="250" width="120" height="40" rx="5" fill="#89b6d5" />
  <text x="700" y="275" text-anchor="middle" font-family="Arial" font-size="12" font-weight="bold" fill="white">
    API Management
  </text>
  <path d="M640 270 L500 280" stroke="#89b6d5" stroke-width="2" fill="none" />
  
  <rect x="640" y="300" width="120" height="40" rx="5" fill="#89b6d5" />
  <text x="700" y="320" text-anchor="middle" font-family="Arial" font-size="12" font-weight="bold" fill="white">
    Integration Advisor
  </text>
  <text x="700" y="335" text-anchor="middle" font-family="Arial" font-size="10" fill="white">
    (AI/ML-driven)
  </text>
  <path d="M640 320 L500 290" stroke="#89b6d5" stroke-width="2" fill="none" />
  
  <!-- Supporting Services -->
  <rect x="200" y="180" width="140" height="40" rx="5" fill="#a6c8e1" />
  <text x="270" y="205" text-anchor="middle" font-family="Arial" font-size="12" font-weight="bold" fill="white">
    Cloud Integration
  </text>
  <text x="270" y="220" text-anchor="middle" font-family="Arial" font-size="11" fill="white">
    Automation Service (CIAS)
  </text>
  <path d="M290 220 L340 250" stroke="#a6c8e1" stroke-width="2" fill="none" />
  
  <rect x="460" y="180" width="140" height="40" rx="5" fill="#a6c8e1" />
  <text x="530" y="205" text-anchor="middle" font-family="Arial" font-size="12" font-weight="bold" fill="white">
    SAP Event Mesh
  </text>
  <path d="M510 220 L460 250" stroke="#a6c8e1" stroke-width="2" fill="none" />
  
  <rect x="200" y="380" width="140" height="40" rx="5" fill="#a6c8e1" />
  <text x="270" y="405" text-anchor="middle" font-family="Arial" font-size="12" font-weight="bold" fill="white">
    Trading Partner Management
  </text>
  <path d="M290 380 L340 350" stroke="#a6c8e1" stroke-width="2" fill="none" />
  
  <rect x="460" y="380" width="140" height="40" rx="5" fill="#a6c8e1" />
  <text x="530" y="405" text-anchor="middle" font-family="Arial" font-size="12" font-weight="bold" fill="white">
    SAP Connectivity Service
  </text>
  <path d="M510 380 L460 350" stroke="#a6c8e1" stroke-width="2" fill="none" />
</svg>
